<svg width="46" height="45" viewBox="0 0 46 45" fill="none" xmlns="http://www.w3.org/2000/svg">
<ellipse cx="23" cy="22.5" rx="23" ry="22.5" fill="#F3F5FF"/>
<path d="M25.8963 27.8254C26.154 27.7344 27.0945 27.3056 27.9834 26.8638C29.4908 26.1361 29.6583 26.0191 30.2767 25.2264L30.9595 24.3817L32.016 24.3817C33.2141 24.3817 33.6521 24.2388 33.8583 23.771C33.9485 23.576 34 22.2896 34 20.0934L34 16.7277L33.6908 16.3639L33.3816 16L26.5534 16L19.7252 16L19.3902 16.3119C19.0939 16.5978 19.0552 16.7147 19.0294 17.9232L18.9908 19.2227L18.0117 19.6516L17.0325 20.0804L16.5301 19.8205C16.1049 19.5996 15.8472 19.5606 14.8166 19.5996C13.6828 19.6516 13.5926 19.6776 13.3092 20.0154C13 20.3663 13 20.3923 13 23.5371C13 26.6948 13 26.7078 13.3092 27.0717C13.5926 27.3966 13.7086 27.4355 14.6877 27.4875C16.0147 27.5395 16.6718 27.3576 16.9294 26.8508C17.0325 26.6429 17.2 26.4999 17.2902 26.5259C17.3675 26.5519 18.9006 26.9028 20.6914 27.3056C24.054 28.0463 25.046 28.1503 25.8963 27.8254ZM20.6399 26.1231L17.1227 25.3564L17.1227 23.3291L17.1227 21.2889L18.3724 20.7302L19.635 20.1584L22.8429 20.1194C24.608 20.0934 26.1926 20.1064 26.3601 20.1584C26.6049 20.2104 26.6693 20.3013 26.6307 20.5872L26.592 20.9381L24.5307 21.237C23.1006 21.4319 22.3663 21.6008 22.1472 21.7568C21.735 22.0556 21.0006 23.4201 20.9877 23.8749C20.9877 24.0829 21.0779 24.2518 21.1939 24.3038C21.3098 24.3428 23.1908 24.3817 25.381 24.3817C27.5712 24.3817 29.362 24.4337 29.362 24.4857C29.362 24.9405 26.4245 26.5779 25.1104 26.8638C24.5307 26.9807 24.7497 27.0197 20.6399 26.1231ZM14.0951 23.5371L14.0951 20.8081L15.0227 20.7691L15.9632 20.7302L15.9632 23.5371L15.9632 26.344L15.0227 26.305L14.0951 26.266L14.0951 23.5371ZM22.5337 22.9653C22.7012 22.6274 22.7914 22.6144 24.9558 22.3025C25.9607 22.1596 26.8883 21.9907 27.0172 21.9257C27.7129 21.5488 28.0092 20.5742 27.6356 19.8595C27.2233 19.0538 27.1975 19.0538 23.4742 19.0538L20.0859 19.0538L20.0859 18.0792L20.0859 17.1046L26.4632 17.1046L32.8405 17.1046L32.8405 20.1584L32.8405 23.2122L27.6227 23.2122C22.4951 23.2122 22.392 23.2122 22.5337 22.9653Z" fill="#2D2D47"/>
<path d="M20.6399 26.1231L17.1227 25.3564L17.1227 23.3291L17.1227 21.2889L18.3724 20.7302L19.635 20.1584L22.8429 20.1194C24.608 20.0934 26.1926 20.1064 26.3601 20.1584C26.6049 20.2104 26.6693 20.3013 26.6307 20.5872L26.592 20.9381L24.5307 21.237C23.1006 21.4319 22.3663 21.6008 22.1472 21.7568C21.735 22.0556 21.0006 23.4201 20.9877 23.8749C20.9877 24.0829 21.0779 24.2518 21.1939 24.3038C21.3098 24.3428 23.1908 24.3817 25.381 24.3817C27.5712 24.3817 29.362 24.4337 29.362 24.4857C29.362 24.9405 26.4245 26.5779 25.1104 26.8638C24.5307 26.9807 24.7497 27.0197 20.6399 26.1231Z" fill="#2D2D47"/>
</svg>
