<svg width="15" height="16" viewBox="0 0 15 16" fill="none" xmlns="http://www.w3.org/2000/svg">
<path d="M7.81733 15.5736C7.1463 15.5736 6.49615 15.4563 5.87515 15.2258C2.63673 14.0245 1.19467 10.0285 2.65758 6.3196C3.81207 3.39536 6.45445 1.42969 9.23858 1.42969C9.9096 1.42969 10.5598 1.54697 11.1808 1.77752C14.4192 2.97876 15.8613 6.97483 14.3984 10.6837C13.2439 13.608 10.6014 15.5736 7.81733 15.5736Z" fill="#F9C338"/>
<path d="M14.1638 10.553C12.7175 14.2175 8.96231 16.2236 5.76974 15.0385C2.57717 13.8534 1.16423 9.92209 2.61048 6.25769C4.05672 2.59329 7.81196 0.58717 11.0045 1.77224C14.1971 2.9573 15.61 6.88865 14.1638 10.553Z" fill="#F9C338"/>
<path opacity="0.4" d="M7.7738 13.3409C7.61125 13.2762 7.46542 13.1589 7.34872 13.0093C6.55266 12.0022 6.54013 10.4531 6.38592 9.23972C6.24005 8.07084 6.12336 6.78869 6.49846 5.64407C6.51097 5.37713 6.64015 5.11424 6.89022 4.96863C7.07777 4.81494 7.31954 4.74617 7.59878 4.82302C7.61545 4.82707 7.63629 4.83516 7.65297 4.8392C8.68659 4.78258 9.72435 4.71787 10.7455 4.9201C11.8166 5.13446 12.9669 5.57936 13.9255 6.08898C14.1714 6.21841 14.4132 6.36806 14.6466 6.52984C14.3131 4.36194 13.0086 2.52974 11.0039 1.78554C7.81131 0.600472 4.05607 2.61063 2.60983 6.27099C1.16358 9.9354 2.58069 13.8667 5.76909 15.0518C7.32787 15.6302 9.02001 15.4441 10.5121 14.6797C10.1453 14.5907 9.78687 14.4734 9.44511 14.344C8.84494 14.1135 8.19891 13.8222 7.76963 13.3409H7.7738Z" fill="#F9C338"/>
<path d="M12.3337 7.09074C11.5376 6.78335 10.7248 6.42742 9.8621 6.3708C9.23275 6.33035 8.60757 6.35461 7.98239 6.38697C7.77817 7.30914 7.8949 8.30411 8.01577 9.22223C8.1158 9.99071 8.13245 10.9452 8.46171 11.7016C8.63259 11.7582 8.78266 11.8714 8.85351 12.0373C9.08691 12.555 9.71623 12.7653 10.233 12.9352C10.8749 13.1414 11.5501 13.3437 12.2336 13.2628C12.3087 13.2547 12.3837 13.2385 12.4545 13.2223C13.1672 12.4862 13.7549 11.5843 14.1633 10.5529C14.4176 9.90577 14.5843 9.2465 14.6676 8.59936C14.0716 7.89965 13.1047 7.39004 12.3337 7.09074Z" fill="#F9C338"/>
<path d="M6.69238 14.8939C6.02135 14.8939 5.37116 14.7766 4.75015 14.5461C1.51173 13.3449 0.0696653 9.34881 1.53258 5.63991C2.68707 2.71567 5.32951 0.75 8.11363 0.75C8.78465 0.75 9.43485 0.867287 10.0559 1.09783C13.2943 2.29907 14.7363 6.29513 13.2734 10.004C12.1189 12.9283 9.4765 14.8939 6.69238 14.8939Z" fill="#F9C338"/>
<path d="M13.0154 9.92958C11.5691 13.594 7.81387 15.6001 4.6213 14.415C1.42873 13.23 0.0157973 9.29863 1.46204 5.63422C2.90828 1.96982 6.66352 -0.0403412 9.85609 1.14877C13.0487 2.33384 14.4616 6.26518 13.0154 9.92958Z" fill="url(#paint0_linear_13647_121795)"/>
<path style="mix-blend-mode:multiply" d="M11.383 10.7922C11.1788 11.1967 10.987 11.6092 10.7911 12.0177C10.4994 12.6325 10.1827 13.223 9.82422 13.7852C11.1913 12.952 12.3499 11.6133 13.0126 9.92668C13.171 9.52222 13.2961 9.10968 13.3877 8.70117C12.7209 9.39684 12.0457 10.0925 11.3788 10.7882L11.383 10.7922Z" fill="url(#paint1_linear_13647_121795)"/>
<path d="M6.54684 14.0239C5.97168 14.0239 5.40901 13.9228 4.87553 13.7246C2.06223 12.6811 0.820201 9.18253 2.1039 5.92663C3.12085 3.35022 5.43404 1.61914 7.86389 1.61914C8.43906 1.61914 9.00172 1.72025 9.5352 1.91844C12.3485 2.96194 13.5905 6.46052 12.3068 9.71642C11.2898 12.2928 8.97669 14.0239 6.54684 14.0239Z" fill="url(#paint2_linear_13647_121795)"/>
<path d="M11.7914 2.39453C13.4335 4.17415 13.9379 7.04582 12.8667 9.76783C11.4205 13.4322 7.66526 15.4384 4.47268 14.2533C3.72664 13.9783 3.08062 13.5495 2.54297 13.0076C3.1098 13.6223 3.81 14.1077 4.63106 14.4151C7.82364 15.6001 11.8373 13.6668 13.2835 10.0024C14.3922 7.19546 13.5586 4.15797 11.7956 2.39453H11.7914Z" fill="#2D2D47"/>
<g style="mix-blend-mode:multiply">
<path d="M6.54938 13.7325C6.01173 13.7325 5.48658 13.6395 4.98644 13.4534C3.71108 12.9802 2.73581 11.9529 2.23984 10.5615C1.7397 9.14997 1.7897 7.54428 2.3857 6.0316C3.35681 3.56844 5.56161 1.91016 7.86643 1.91016C8.40409 1.91016 8.92924 2.00318 9.42938 2.18923C10.7047 2.66245 11.68 3.68978 12.176 5.08112C12.6761 6.49268 12.6261 8.09838 12.0301 9.61106C11.059 12.0742 8.8542 13.7325 6.54938 13.7325Z" fill="#F9C338"/>
</g>
<g style="mix-blend-mode:multiply">
<path d="M2.88768 6.43221C3.90464 3.8558 6.21782 2.12472 8.64768 2.12472C9.22284 2.12472 9.78545 2.22583 10.3189 2.42401C10.4857 2.48468 10.644 2.55748 10.8024 2.63433C10.4273 2.33503 10.0022 2.09235 9.53543 1.91844C9.00195 1.72025 8.43928 1.61914 7.86412 1.61914C5.43427 1.61914 3.12108 3.35022 2.10413 5.92663C0.895451 8.98839 1.92491 12.2686 4.39644 13.5143C2.50841 12.0259 1.82072 9.14208 2.89186 6.42816L2.88768 6.43221Z" fill="#F9C338"/>
</g>
<g style="mix-blend-mode:color-dodge">
<path d="M12.0098 9.46552C11.0095 11.9974 8.74637 13.7002 6.37486 13.7002C5.82054 13.7002 5.27873 13.6031 4.77025 13.4131C3.45738 12.9277 2.45709 11.868 1.94861 10.4403C1.72772 9.82145 1.70271 9.99133 1.94861 10.683C2.45709 12.1147 3.46155 13.1704 4.77025 13.6557C5.2829 13.8458 5.82471 13.9429 6.37486 13.9429C8.74637 13.9429 11.0095 12.2401 12.0098 9.7082C12.3599 8.81839 12.5266 7.89218 12.5099 6.99023C12.4974 7.81129 12.3307 8.65256 12.0098 9.46148V9.46552Z" fill="#2D2D47"/>
</g>
<path style="mix-blend-mode:overlay" opacity="0.3" d="M2.87382 13.3493C3.85743 11.4038 5.04947 9.55544 6.3415 7.77986C6.84998 7.08419 7.36678 6.39256 7.89193 5.70903C8.40041 5.04571 8.8839 4.35005 9.4799 3.75549C9.96337 3.27419 10.4718 2.82118 10.9469 2.33179C11.0636 2.21045 11.1804 2.08912 11.2929 1.95969C10.8636 1.62399 10.3843 1.34896 9.85497 1.15077C6.6624 -0.0342939 2.90716 1.97587 1.46092 5.63623C0.314758 8.54025 0.969116 11.6101 2.87382 13.3493Z" fill="url(#paint3_linear_13647_121795)"/>
<g style="mix-blend-mode:color-dodge">
<path d="M1.6844 5.64318C3.13065 1.97877 6.88588 -0.0273435 10.0785 1.15772C10.141 1.18199 10.2035 1.20626 10.2619 1.23052C10.1368 1.1739 10.0076 1.11728 9.87841 1.06874C6.68583 -0.116325 2.9306 1.89384 1.48435 5.5542C0.338196 8.45822 0.992554 11.5281 2.89726 13.2672C2.90976 13.243 2.92225 13.2228 2.93476 13.1985C1.15509 11.435 0.575755 8.46226 1.6844 5.64318Z" fill="#2D2D47"/>
</g>
<defs>
<linearGradient id="paint0_linear_13647_121795" x1="5.93833" y1="-3.00503" x2="8.23232" y2="17.1894" gradientUnits="userSpaceOnUse">
<stop offset="0.08" stop-color="white"/>
<stop offset="0.22" stop-color="#FFFF43"/>
<stop offset="1" stop-color="#FFCC43"/>
</linearGradient>
<linearGradient id="paint1_linear_13647_121795" x1="9.83672" y1="-3.4488" x2="12.1346" y2="16.7457" gradientUnits="userSpaceOnUse">
<stop offset="0.08" stop-color="white"/>
<stop offset="0.22" stop-color="#FFFF43"/>
<stop offset="1" stop-color="#FFCC43"/>
</linearGradient>
<linearGradient id="paint2_linear_13647_121795" x1="1.59542" y1="7.82355" x2="12.8111" y2="7.82355" gradientUnits="userSpaceOnUse">
<stop offset="0.08" stop-color="white"/>
<stop offset="0.22" stop-color="#FFFF43"/>
<stop offset="1" stop-color="#FFCC43"/>
</linearGradient>
<linearGradient id="paint3_linear_13647_121795" x1="5.08279" y1="-2.90596" x2="7.37679" y2="17.2884" gradientUnits="userSpaceOnUse">
<stop offset="0.08" stop-color="white"/>
<stop offset="0.22" stop-color="#FFFF43"/>
<stop offset="1" stop-color="#FFCC43"/>
</linearGradient>
</defs>
</svg>
