<svg width="253" height="28" viewBox="0 0 253 28" fill="none" xmlns="http://www.w3.org/2000/svg">
<path d="M51.5972 8.82001C51.7567 8.78924 51.9751 8.70333 52.0813 8.62161C52.3037 8.46498 52.3021 8.45655 52.0631 8.16159C51.8224 7.85819 51.8508 7.8702 51.6704 8.01873C51.5339 8.1238 51.5071 8.12023 51.4781 7.96839C51.4314 7.72377 51.1275 7.36261 50.922 7.28858C50.6729 7.21422 50.2802 7.29878 50.1298 7.46776C50.0065 7.59651 50.0129 7.63026 50.1952 7.90119C50.3658 8.15688 50.4042 8.17571 50.5391 8.0622C50.674 7.94869 50.694 7.96233 50.7375 8.19008C50.8084 8.56123 51.2533 8.88642 51.5972 8.82001Z" fill="white"/>
<path d="M213.537 7.29479C213.788 7.14889 214.107 6.87506 214.239 6.67445C214.523 6.27886 214.516 6.26556 213.94 5.90811C213.357 5.53736 213.412 5.54092 213.194 5.89812C213.024 6.15604 212.977 6.16578 212.839 5.92638C212.618 5.54067 211.894 5.10959 211.504 5.10562C211.04 5.12675 210.425 5.50095 210.27 5.87501C210.137 6.16516 210.167 6.21836 210.633 6.56869C211.07 6.90009 211.146 6.90927 211.308 6.63805C211.47 6.36683 211.511 6.37807 211.717 6.73718C212.054 7.32239 212.995 7.60962 213.537 7.29479Z" fill="#F9C338"/>
<path d="M23.1544 23.2598C22.8895 23.2788 22.518 23.3759 22.3298 23.488C21.9385 23.6993 21.9394 23.7133 22.2711 24.2389C22.6037 24.7786 22.5598 24.7536 22.8815 24.5473C23.1235 24.4032 23.1663 24.4142 23.1842 24.6665C23.2131 25.073 23.6373 25.7188 23.957 25.879C24.3474 26.0482 25.0017 25.9871 25.2785 25.7418C25.5036 25.5566 25.4996 25.5005 25.2556 25.0249C25.0276 24.5764 24.9688 24.5383 24.7278 24.6965C24.4868 24.8547 24.4569 24.8287 24.4301 24.4502C24.3862 23.8335 23.726 23.2187 23.1544 23.2598Z" fill="#17DC95"/>
<path d="M24.0131 11.1688C24.0102 11.4358 24.0761 11.8159 24.1719 12.0137C24.3493 12.4231 24.3633 12.4233 24.9115 12.134C25.4736 11.8449 25.4452 11.8867 25.2671 11.5475C25.144 11.2933 25.1584 11.2513 25.41 11.2539C25.8153 11.2583 26.4902 10.886 26.6751 10.5788C26.8748 10.2015 26.8678 9.54091 26.6473 9.24343C26.4821 9.00276 26.4262 9.00216 25.9348 9.20772C25.4715 9.39953 25.429 9.45529 25.5661 9.70972C25.7032 9.96415 25.6749 9.99195 25.2975 9.98793C24.6826 9.98137 24.0191 10.5926 24.0131 11.1688Z" fill="white"/>
<path d="M4.28936 16.7882C4.25374 16.393 4.09969 15.8409 3.92865 15.563C3.60537 14.9844 3.58468 14.9862 2.81732 15.4965C2.02928 16.0086 2.06502 15.9425 2.37893 16.4171C2.59884 16.7745 2.58378 16.8388 2.21145 16.8727C1.61157 16.9273 0.669287 17.5793 0.441623 18.0614C0.202647 18.6493 0.311446 19.6249 0.681784 20.0314C0.961881 20.3624 1.04463 20.3548 1.7405 19.9769C2.39687 19.6235 2.45142 19.5347 2.21082 19.1792C1.97022 18.8237 2.00785 18.7783 2.56635 18.7274C3.47651 18.6445 4.36623 17.6409 4.28936 16.7882Z" fill="#FB7E6C"/>
<path d="M60.347 14.3441C60.3192 14.0357 60.199 13.6048 60.0655 13.3879C59.8132 12.9363 59.797 12.9377 59.1981 13.336C58.5831 13.7357 58.611 13.6841 58.8559 14.0545C59.0276 14.3334 59.0158 14.3836 58.7252 14.4101C58.257 14.4527 57.5216 14.9616 57.3439 15.3378C57.1574 15.7967 57.2423 16.5581 57.5314 16.8754C57.75 17.1337 57.8146 17.1278 58.3577 16.8329C58.87 16.5571 58.9125 16.4877 58.7247 16.2103C58.537 15.9328 58.5663 15.8974 59.0022 15.8577C59.7126 15.793 60.407 15.0096 60.347 14.3441Z" fill="#17DC95"/>
<path d="M252.571 7.03301C252.549 6.79632 252.457 6.4656 252.355 6.29909C252.161 5.9525 252.149 5.95362 251.689 6.25927C251.217 6.56605 251.238 6.52642 251.426 6.81073C251.558 7.02481 251.549 7.06331 251.326 7.08364C250.967 7.11638 250.402 7.50694 250.266 7.79569C250.123 8.14786 250.188 8.73224 250.41 8.97579C250.577 9.17403 250.627 9.16951 251.044 8.94313C251.437 8.73146 251.47 8.67824 251.326 8.46529C251.181 8.25234 251.204 8.22516 251.539 8.19468C252.084 8.145 252.617 7.54378 252.571 7.03301Z" fill="#17DC95"/>
<path d="M69.5999 26.6312C69.8792 26.5007 70.2419 26.2413 70.3999 26.0417C70.7374 25.6503 70.7306 25.6355 70.1553 25.2034C69.5733 24.7565 69.6311 24.7654 69.3671 25.1225C69.164 25.3791 69.1131 25.385 68.9901 25.1189C68.7919 24.6903 68.067 24.1664 67.6548 24.1254C67.1622 24.104 66.4781 24.4417 66.2787 24.8224C66.1108 25.1166 66.1382 25.1757 66.5978 25.5899C67.0291 25.9815 67.1084 25.9983 67.3047 25.7269C67.501 25.4554 67.5441 25.4712 67.7286 25.8703C68.0292 26.5206 68.9972 26.9129 69.5999 26.6312Z" fill="#FB7E6C"/>
<path d="M90.1544 10.2598C89.8895 10.2788 89.518 10.3759 89.3298 10.488C88.9385 10.6993 88.9394 10.7133 89.2711 11.2389C89.6037 11.7786 89.5598 11.7536 89.8815 11.5473C90.1235 11.4032 90.1663 11.4142 90.1842 11.6665C90.2131 12.073 90.6373 12.7188 90.957 12.879C91.3474 13.0482 92.0017 12.9871 92.2785 12.7418C92.5036 12.5566 92.4996 12.5005 92.2556 12.0249C92.0276 11.5764 91.9688 11.5383 91.7278 11.6965C91.4868 11.8547 91.4569 11.8287 91.4301 11.4502C91.3862 10.8335 90.726 10.2187 90.1544 10.2598Z" fill="#17DC95"/>
<path d="M127.347 1.34412C127.319 1.03572 127.199 0.604822 127.065 0.387876C126.813 -0.0637185 126.797 -0.0622503 126.198 0.33599C125.583 0.735702 125.611 0.684067 125.856 1.0545C126.028 1.33343 126.016 1.3836 125.725 1.41008C125.257 1.45274 124.522 1.96161 124.344 2.33784C124.157 2.79669 124.242 3.55811 124.531 3.87543C124.75 4.13372 124.815 4.12784 125.358 3.83287C125.87 3.55708 125.913 3.48774 125.725 3.21028C125.537 2.93282 125.566 2.89741 126.002 2.85769C126.713 2.79296 127.407 2.00962 127.347 1.34412Z" fill="#17DC95"/>
<path d="M136.6 13.6312C136.879 13.5007 137.242 13.2413 137.4 13.0417C137.737 12.6503 137.731 12.6355 137.155 12.2034C136.573 11.7565 136.631 11.7654 136.367 12.1225C136.164 12.3791 136.113 12.385 135.99 12.1189C135.792 11.6903 135.067 11.1664 134.655 11.1254C134.162 11.104 133.478 11.4417 133.279 11.8224C133.111 12.1166 133.138 12.1757 133.598 12.5899C134.029 12.9815 134.108 12.9983 134.305 12.7269C134.501 12.4554 134.544 12.4712 134.729 12.8703C135.029 13.5206 135.997 13.9129 136.6 13.6312Z" fill="#FB7E6C"/>
<path d="M160.996 7.33927C161.365 7.23977 161.864 7.00066 162.099 6.79054C162.595 6.3846 162.59 6.36506 161.979 5.71283C161.362 5.04105 161.431 5.06442 161.032 5.44418C160.729 5.71433 160.666 5.7105 160.572 5.35871C160.421 4.79194 159.646 3.99523 159.151 3.85637C158.553 3.72415 157.644 3.98982 157.32 4.41249C157.052 4.73604 157.072 4.81422 157.546 5.4197C157.99 5.99133 158.084 6.02901 158.382 5.73931C158.679 5.44961 158.729 5.47823 158.869 6.00592C159.099 6.86584 160.199 7.55398 160.996 7.33927Z" fill="#F960AC"/>
</svg>
