<svg width="35" height="28" viewBox="0 0 35 28" fill="none" xmlns="http://www.w3.org/2000/svg">
<path fill-rule="evenodd" clip-rule="evenodd" d="M22.7046 0.0855262C21.8767 0.357041 21.1733 0.967696 20.8333 1.71027C20.5356 2.36036 20.4832 3.30216 20.7077 3.96724C20.846 4.37681 20.8485 4.4223 20.7342 4.45779C20.0794 4.66136 19.5689 5.10245 19.4105 5.60146C19.2045 6.25047 17.9826 12.9507 17.986 13.4126C17.9895 13.8709 18.0638 14.1242 18.3791 14.752C18.3952 14.784 18.1871 14.8102 17.9166 14.8102H17.4249V11.5565V8.3027L17.1879 8.00976C17.0574 7.84865 16.8129 7.64453 16.6444 7.5561C16.3533 7.40345 16.1938 7.39414 13.4652 7.37045C11.8852 7.35679 10.4128 7.36758 10.1933 7.39437C9.68874 7.45617 9.22475 7.753 8.98849 8.16512L8.80665 8.48237V11.5492C8.80665 14.6086 8.80711 14.6169 8.98546 14.928C9.32087 15.5129 9.83331 15.7367 10.8448 15.74L11.4077 15.7419V16.1163C11.4077 16.8986 11.8418 17.6311 12.5523 18.0475C12.8393 18.2157 13.0315 18.2621 13.5551 18.2896C13.9113 18.3083 14.2028 18.3462 14.2028 18.3738C14.2028 18.4014 14.1037 18.5455 13.9826 18.694C13.3743 19.4401 13.0054 20.4569 12.8692 21.7637C12.7979 22.4477 12.7985 22.7117 12.8719 22.9566C12.9956 23.3695 13.4406 23.7936 13.8864 23.9233L14.2416 24.0266L14.2908 24.5695C14.3782 25.5331 14.9208 26.4302 15.752 26.9853C17.8464 28.3838 20.6929 27.0531 20.9417 24.559L20.9965 24.0108H23.975H26.9536L27.0868 24.4378C27.3765 25.3665 27.5686 25.5418 28.0681 25.3331C28.2273 25.2666 28.3644 25.2214 28.3728 25.2326C28.3812 25.2439 28.5025 25.4705 28.6423 25.7362C28.9681 26.3555 29.5891 26.9409 30.2546 27.2562C30.7461 27.4889 30.8336 27.5047 31.6334 27.5047C32.4333 27.5047 32.5208 27.4889 33.0123 27.2562C34.7737 26.4217 35.5128 24.3099 34.6203 22.662C34.4935 22.4278 34.3897 22.2151 34.3897 22.1892C34.3897 22.1632 34.4945 22.0801 34.6227 22.0044C34.9334 21.8209 34.9324 21.5042 34.6195 21.0166C33.9556 19.982 32.7367 19.2596 31.4163 19.1182C30.9491 19.0681 30.8958 19.045 30.8958 18.892C30.8958 18.5803 30.579 17.5063 30.3522 17.0492C30.0668 16.4738 29.8119 16.1055 29.0735 15.2011C28.3986 14.3746 28.1157 13.8945 28.2731 13.8428C28.3277 13.8248 28.6361 13.799 28.9582 13.7854C30.1243 13.7361 30.7794 13.1272 30.7794 12.0927C30.7794 11.4064 30.4941 10.9139 29.9272 10.6218C29.5907 10.4483 29.4267 10.4202 28.6232 10.3974L27.7041 10.3714L25.4787 8.53322C23.3965 6.81337 22.8987 6.33525 22.8987 6.0552C22.8987 5.96405 22.9693 5.95193 23.2533 5.99456C23.7064 6.06249 23.9857 5.9038 23.9857 5.57847C23.9857 5.31861 24.0709 5.23794 24.4875 5.10354C24.8899 4.9738 25.5627 4.30103 25.6924 3.89861C25.8268 3.48206 25.9075 3.39681 26.1674 3.39681C26.5217 3.39681 26.6336 3.14928 26.5492 2.55214C26.41 1.56717 25.7604 0.695871 24.8397 0.259367C24.4167 0.0588178 24.2284 0.0172015 23.6751 0.00190597C23.2892 -0.008731 22.8862 0.0259747 22.7046 0.0855262ZM24.4904 1.0493C24.9037 1.26274 25.3391 1.72517 25.5308 2.15453L25.6867 2.50392L24.5192 2.54274C23.4788 2.57737 23.3396 2.59795 23.2416 2.73227C23.1588 2.8457 23.1316 3.15891 23.1316 3.99923V5.11542L22.9569 5.06138C22.0222 4.77239 21.4278 3.97532 21.426 3.0086C21.4243 2.10267 21.9432 1.31895 22.7583 0.996269C23.2795 0.789896 24.0326 0.813033 24.4904 1.0493ZM24.9174 3.43951C24.9174 3.56956 24.658 3.94877 24.4484 4.12517C24.0759 4.43853 23.9857 4.39746 23.9857 3.91445C23.9857 3.68665 24.009 3.47701 24.0375 3.4486C24.0994 3.38664 24.9174 3.37817 24.9174 3.43951ZM21.6449 5.53414C21.7965 5.66171 21.9347 5.90038 22.0397 6.21584C22.1286 6.48285 22.2875 6.82828 22.3929 6.98341C22.4984 7.13862 23.4589 7.98647 24.5275 8.86763C25.596 9.74871 26.4702 10.4963 26.4702 10.529C26.4702 10.5616 26.3649 10.6661 26.2363 10.7612L26.0024 10.9342L24.5476 10.1369C23.2309 9.41539 23.0542 9.33954 22.6867 9.33806C22.3376 9.33666 22.248 9.36912 22.0488 9.56936C21.8474 9.77185 21.7782 9.96991 21.5204 11.0834L21.2236 12.3645L20.6054 12.3568C19.8793 12.3477 19.0942 12.1465 19.0942 11.9697C19.0942 11.775 20.183 6.042 20.2569 5.84774C20.4513 5.33662 21.2071 5.16581 21.6449 5.53414ZM16.4191 8.47887L16.6097 8.66941V11.5492V14.4291L16.4191 14.6196L16.2285 14.8102H13.1193C10.1136 14.8102 10.0049 14.805 9.85482 14.6549C9.70497 14.5051 9.69953 14.3961 9.69953 11.5492C9.69953 8.70233 9.70497 8.5934 9.85482 8.44355C10.0049 8.29346 10.1136 8.28826 13.1193 8.28826H16.2285L16.4191 8.47887ZM24.2029 10.9438L25.5461 11.6758L25.5405 16.0917C25.5374 18.5205 25.5197 20.5228 25.5012 20.5414C25.4826 20.5598 25.357 20.4821 25.2219 20.3684C25.0869 20.2549 24.8758 20.1098 24.7528 20.0462L24.5292 19.9306V16.785C24.5292 13.8161 24.5206 13.6227 24.3773 13.3417C24.0749 12.7489 23.6562 12.5304 22.6464 12.4386C22.3581 12.4124 22.1223 12.3784 22.1223 12.3632C22.1223 12.3095 22.5914 10.3444 22.629 10.2407C22.6775 10.1069 22.6211 10.0816 24.2029 10.9438ZM29.5834 11.4144C30.0756 11.7489 30.0766 12.443 29.5852 12.7649C29.4485 12.8545 29.1443 12.91 28.6204 12.941C27.8582 12.9862 27.854 12.9876 27.5897 13.276C27.1121 13.7972 27.2577 14.292 28.268 15.5811C29.2112 16.7846 29.3496 16.9842 29.5823 17.4761C29.8159 17.9703 30.0843 19.0129 30.0206 19.179C30.0002 19.2322 29.8131 19.337 29.605 19.4119C28.268 19.8927 27.1585 21.291 26.9666 22.7368L26.9161 23.1179H20.5631C16.0725 23.1179 14.1546 23.0927 14.0209 23.0317C13.6976 22.8844 13.6437 22.6455 13.7387 21.7821C13.8822 20.4778 14.2511 19.6477 15.0863 18.7495L15.4303 18.3795L17.864 18.4001L20.2977 18.4206L20.3485 19.3523C20.4192 20.6506 20.5546 21.0232 21.1445 21.5425C21.643 21.9812 21.8905 22.0309 23.5776 22.0309C25.4238 22.0309 25.7122 21.9366 26.1839 21.1782C26.3523 20.9075 26.3541 20.8657 26.3926 16.3983C26.4287 12.2039 26.4413 11.8766 26.5731 11.6753C26.8084 11.3165 27.089 11.2495 28.2948 11.2642C29.1904 11.2752 29.4173 11.3016 29.5834 11.4144ZM0.122763 11.4583C-0.0457979 11.6446 -0.0402854 11.8821 0.136273 12.0419C0.264072 12.1576 0.638152 12.1704 3.88988 12.1704C7.29014 12.1704 7.50901 12.1621 7.62998 12.0284C7.79854 11.8421 7.79303 11.6046 7.61647 11.4448C7.48867 11.3291 7.11459 11.3163 3.86286 11.3163C0.462603 11.3163 0.24373 11.3246 0.122763 11.4583ZM21.3739 13.2664C23.1495 13.3433 23.4246 13.4002 23.5993 13.7265C23.6564 13.8332 23.6791 14.9302 23.67 17.1483C23.6603 19.5326 23.6809 20.4373 23.7465 20.5029C23.7959 20.5523 24.0159 20.6816 24.2353 20.7901C24.903 21.1203 24.8235 21.1849 23.7795 21.16L22.8599 21.138L22.7822 18.4147C22.7051 15.71 22.7033 15.6893 22.5141 15.4133C22.1877 14.9376 21.9709 14.8593 20.88 14.8235C19.6353 14.7826 19.3234 14.6436 18.9872 13.9794C18.8676 13.7433 18.8126 13.099 18.9042 13.0074C18.9278 12.9837 19.1112 13.0159 19.3119 13.0787C19.5439 13.1514 20.2938 13.2196 21.3739 13.2664ZM0.122763 15.4181C-0.0457979 15.6043 -0.0402854 15.8418 0.136273 16.0016C0.26446 16.1176 0.66028 16.1301 4.20806 16.1301H8.13791L8.25873 15.9575C8.41851 15.7295 8.41122 15.6182 8.22433 15.4313C8.07316 15.2802 7.96555 15.2761 4.16015 15.2761C0.47192 15.2761 0.24404 15.2841 0.122763 15.4181ZM20.2997 15.9166C20.3238 16.0127 20.3332 16.3883 20.3206 16.7513L20.2977 17.4112L16.9202 17.4335C15.0627 17.4458 13.4303 17.4357 13.2927 17.411C12.9711 17.3534 12.6062 17.0446 12.4136 16.6669C12.2652 16.376 12.2102 15.8969 12.3135 15.7937C12.3419 15.7652 14.1407 15.7419 16.3106 15.7419H20.2559L20.2997 15.9166ZM21.7985 15.8778C21.8986 16.0724 21.9783 21.0216 21.8814 21.0216C21.735 21.0216 21.4358 20.6516 21.3398 20.3521C21.2764 20.1542 21.2321 19.3134 21.2105 17.8965L21.1778 15.7419H21.4532C21.6371 15.7419 21.7518 15.787 21.7985 15.8778ZM32.1568 20.1738C32.4206 20.2627 32.7428 20.4079 32.8726 20.4965C33.2266 20.7379 33.7686 21.2738 33.7686 21.3822C33.7686 21.4347 32.7498 21.9902 31.5048 22.6167C30.2597 23.2432 28.9827 23.8918 28.6672 24.058C28.3516 24.2242 28.0642 24.3602 28.0286 24.3602C27.9322 24.3602 27.79 23.7235 27.7911 23.297C27.7929 22.585 28.1076 21.7507 28.6068 21.1347C29.3862 20.1729 30.9211 19.7576 32.1568 20.1738ZM33.8448 23.0375C34.3421 24.0123 34.1203 25.2646 33.3194 26.0028C32.8003 26.4813 32.3689 26.6464 31.6323 26.6487C31.0833 26.6504 30.9487 26.6205 30.4898 26.3948C30.1919 26.2482 29.8692 26.0171 29.7345 25.8537C29.5043 25.5743 29.1877 24.9809 29.1877 24.8284C29.1877 24.7554 29.8049 24.3997 29.8412 24.4518C29.8507 24.4655 29.8995 24.6195 29.9495 24.7941C30.2512 25.8464 31.4538 26.4358 32.4116 26.0007C33.4883 25.5115 33.8434 24.2497 33.1813 23.2657L32.9242 22.8837L33.2105 22.7364C33.5411 22.5662 33.6246 22.6059 33.8448 23.0375ZM32.3191 23.5873C32.7232 23.9052 32.7498 24.576 32.3741 24.9781C31.8128 25.5789 30.7419 25.1434 30.7409 24.314C30.7405 24.0367 30.8617 23.912 31.4005 23.6352C31.8753 23.3912 32.0577 23.3817 32.3191 23.5873ZM15.793 24.339C15.9407 25.3236 16.6659 25.9851 17.6021 25.989C18.0992 25.9911 18.5027 25.8332 18.8485 25.5014C19.1986 25.1656 19.3509 24.8618 19.4014 24.399L19.4436 24.0108H19.7542H20.0648L20.0621 24.406C20.0567 25.2142 19.39 26.1659 18.5972 26.4971C17.8478 26.8103 16.8012 26.6909 16.1482 26.2178C15.5823 25.8079 15.136 24.9468 15.1349 24.2631C15.1345 23.9766 15.1392 23.972 15.4362 23.972C15.7365 23.972 15.7382 23.9738 15.793 24.339ZM18.548 24.2243C18.5404 24.9156 17.789 25.3489 17.1609 25.0241C16.8665 24.8719 16.6873 24.5776 16.6873 24.2464V23.972H17.619H18.5507L18.548 24.2243Z" fill="#5E6EFF"/>
<path d="M0.122763 11.4583C-0.0457979 11.6446 -0.0402854 11.8821 0.136273 12.0419C0.264072 12.1576 0.638152 12.1704 3.88988 12.1704C7.29014 12.1704 7.50901 12.1621 7.62998 12.0284C7.79854 11.8421 7.79303 11.6046 7.61647 11.4448C7.48867 11.3291 7.11459 11.3163 3.86286 11.3163C0.462603 11.3163 0.24373 11.3246 0.122763 11.4583Z" fill="#79BF9F"/>
<path d="M0.122763 15.4181C-0.0457979 15.6043 -0.0402854 15.8418 0.136273 16.0016C0.26446 16.1176 0.66028 16.1301 4.20806 16.1301H8.13791L8.25873 15.9575C8.41851 15.7295 8.41122 15.6182 8.22433 15.4313C8.07316 15.2802 7.96555 15.2761 4.16015 15.2761C0.47192 15.2761 0.24404 15.2841 0.122763 15.4181Z" fill="#79BF9F"/>
<path d="M21.3739 13.2664C23.1495 13.3433 23.4246 13.4002 23.5993 13.7265C23.6564 13.8332 23.6791 14.9302 23.67 17.1483C23.6603 19.5326 23.6809 20.4373 23.7465 20.5029C23.7959 20.5523 24.0159 20.6816 24.2353 20.7901C24.903 21.1203 24.8235 21.1849 23.7795 21.16L22.8599 21.138L22.7822 18.4147C22.7051 15.71 22.7033 15.6893 22.5141 15.4133C22.1877 14.9376 21.9709 14.8593 20.88 14.8235C19.6353 14.7826 19.3234 14.6436 18.9872 13.9794C18.8676 13.7433 18.8126 13.099 18.9042 13.0074C18.9278 12.9837 19.1112 13.0159 19.3119 13.0787C19.5439 13.1514 20.2938 13.2196 21.3739 13.2664Z" fill="#79BF9F"/>
</svg>
