<svg width="185" height="127" viewBox="0 0 185 127" fill="none" xmlns="http://www.w3.org/2000/svg">
<path d="M71.2738 20.342C71.2738 17.6707 71.7999 15.0255 72.8222 12.5576C73.8445 10.0896 75.3428 7.84717 77.2317 5.95828C79.1206 4.06938 81.363 2.57103 83.831 1.54877C86.299 0.526503 88.9441 0.000352964 91.6154 0.00035273C94.2867 0.000352497 96.9318 0.526506 99.3998 1.54876C101.868 2.57103 104.11 4.06938 105.999 5.95828C107.888 7.84717 109.386 10.0896 110.409 12.5576C111.431 15.0255 111.957 17.6707 111.957 20.342L107.258 20.342C107.258 18.2877 106.854 16.2536 106.067 14.3558C105.281 12.4579 104.129 10.7334 102.677 9.28088C101.224 7.82831 99.4995 6.67608 97.6016 5.88995C95.7038 5.10383 93.6696 4.69922 91.6154 4.69922C89.5612 4.69922 87.5271 5.10383 85.6292 5.88995C83.7313 6.67607 82.0069 7.82831 80.5543 9.28088C79.1017 10.7334 77.9495 12.4579 77.1634 14.3558C76.3773 16.2536 75.9727 18.2877 75.9727 20.342L71.2738 20.342Z" fill="#F9C338"/>
<path d="M51.6211 26.5628C51.6211 23.1271 54.4063 20.3418 57.8421 20.3418H125.391C128.827 20.3418 131.612 23.1271 131.612 26.5628V61.5332C131.612 78.7122 117.686 92.6384 100.507 92.6384H82.7263C65.5474 92.6384 51.6211 78.7122 51.6211 61.5332V26.5628Z" fill="#576AFF"/>
<path d="M65.7941 67.1421C67.7016 61.8375 71.2095 57.2563 75.8332 54.0317C80.4569 50.807 85.968 49.0981 91.605 49.1412C97.2419 49.1842 102.726 50.977 107.3 54.2718C111.874 57.5667 115.312 62.2008 117.138 67.5339L106.838 71.061C105.743 67.8618 103.681 65.082 100.937 63.1055C98.1932 61.1291 94.9033 60.0537 91.5219 60.0278C88.1405 60.002 84.8346 61.0271 82.061 62.9615C79.2874 64.8958 77.1831 67.6439 76.0389 70.8259L65.7941 67.1421Z" fill="white"/>
<ellipse opacity="0.23" cx="92.4975" cy="122.851" rx="92.1382" ry="3.07127" fill="#FE7B31" fill-opacity="0.24"/>
<path d="M93.8308 80.8775L97.6578 100.118L99.8408 123.959L108.994 122.611L107.981 117.7L105.403 117.747L105.124 96.987L102.471 81.3346L93.8308 80.8775Z" fill="#F9C338"/>
<path d="M87.1731 80.8775L83.3461 100.118L81.1631 123.959L72.0102 122.611L73.0234 117.7L75.6006 117.747L75.8804 96.987L78.5325 81.3346L87.1731 80.8775Z" fill="#F9C338"/>
<path d="M91.7316 102.887L88.5029 100.015C77.0355 89.8542 69.4648 83.1309 69.4648 74.928C69.4648 68.2047 74.8534 62.9609 81.7115 62.9609C85.5859 62.9609 89.3045 64.7234 91.7316 67.4867C94.1586 64.7234 97.8772 62.9609 101.752 62.9609C108.61 62.9609 113.998 68.2047 113.998 74.928C113.998 83.1309 106.428 89.8542 94.9602 100.015L91.7316 102.887Z" fill="#FE7B31" fill-opacity="0.24"/>
<path d="M55.2809 41.2755C23.6998 57.763 61.0279 80.621 75.6059 80.6213" stroke="#F9C338" stroke-width="6.34814" stroke-linecap="round"/>
<path d="M129.235 41.2751C160.816 57.7626 123.198 80.6217 108.62 80.622" stroke="#F9C338" stroke-width="6.34814" stroke-linecap="round"/>
</svg>
