<svg width="28" height="28" viewBox="0 0 28 28" fill="none" xmlns="http://www.w3.org/2000/svg">
<path d="M11.1375 1.1091C5.65735 2.28653 1.64536 6.31305 0.511539 11.8077C0.366177 12.52 0.235352 13.3922 0.235352 13.7265V14.3516H1.10752H1.97969V13.8719C1.99423 11.8949 3.30249 8.53709 4.72703 6.8945C7.06736 4.19077 10.4688 2.57725 13.8267 2.57725C16.8502 2.57725 20.0336 3.92912 22.2431 6.15315C23.5659 7.49048 23.5659 7.35966 22.185 8.75513C21.3564 9.58369 21.0366 10.0052 21.182 10.0489C21.371 10.107 27.6215 10.4268 27.6506 10.3832C27.6797 10.325 27.418 5.48449 27.3308 4.62686L27.2436 3.69654L26.008 4.93212L24.7579 6.18223L23.5805 4.99026C22.9409 4.3216 21.8797 3.44942 21.2401 3.02787C18.3184 1.13817 14.4808 0.411362 11.1375 1.1091Z" fill="#79BF9F"/>
<path d="M10.8473 9.7006L8.0127 10.8199V14.4394V18.0444L10.9199 19.1782L13.8272 20.312L16.7344 19.1782L19.6416 18.0444L19.6707 14.4249L19.7143 10.7908L16.8507 9.7006C15.2808 9.10461 13.9289 8.59585 13.8417 8.58131C13.7545 8.56677 12.4026 9.07554 10.8473 9.7006ZM15.775 9.62792C15.8186 9.67152 14.8302 10.1367 14.6848 10.1367C14.6557 10.1367 13.6963 10.5001 12.5625 10.9507L10.4838 11.7647L9.50992 11.4304C8.59414 11.1251 8.25981 10.878 8.71043 10.849C8.79765 10.849 10.0042 10.3983 11.356 9.86049L13.8272 8.87203L14.772 9.2209C15.2953 9.42441 15.7459 9.59884 15.775 9.62792ZM18.1444 10.5292C18.6968 10.7327 19.1329 10.9507 19.1329 10.9943C19.1329 11.0379 17.9264 11.5467 16.4728 12.0991L13.8126 13.1311L12.766 12.7096C12.1846 12.477 11.7485 12.2444 11.7921 12.1863C11.9375 12.0555 16.7199 10.1512 16.9524 10.1367C17.0687 10.1367 17.6066 10.3111 18.1444 10.5292ZM10.3821 12.8695C10.4112 13.291 10.4838 13.6254 10.5565 13.6254C10.6147 13.6254 10.7746 13.669 10.9054 13.7126C11.0944 13.7853 11.138 13.6835 11.138 13.2184C11.138 12.884 11.1816 12.5933 11.2543 12.5642C11.3124 12.5206 11.8648 12.6951 12.4898 12.9422L13.6091 13.3783V16.6198V19.8614L13.0713 19.6579C12.766 19.5561 11.6031 19.1055 10.4838 18.6694L8.44878 17.8845L8.40517 14.5993L8.3761 11.3141L9.35002 11.7211L10.3385 12.1136L10.3821 12.8695ZM19.1765 17.8409C19.1038 17.899 18.0136 18.3496 16.7344 18.8584C15.4552 19.3526 14.3214 19.7887 14.2342 19.8323C14.0888 19.8905 14.0452 19.1927 14.0452 16.6489V13.3783L16.6327 12.3753L19.2056 11.3577L19.2492 14.5557C19.2637 16.3146 19.2346 17.7973 19.1765 17.8409Z" fill="#5E6EFF"/>
<path d="M25.6151 15.4275C25.0773 20.6751 21.2833 24.9342 16.2247 25.9808C14.4804 26.3442 13.1721 26.3442 11.4423 25.9808C9.17469 25.5156 7.08148 24.3672 5.40982 22.6956C4.08703 21.3583 4.08703 21.4891 5.46797 20.0936C6.29653 19.265 6.61633 18.8435 6.47096 18.7999C6.28199 18.7417 0.031433 18.4219 0.00236068 18.4656C-0.0267117 18.5237 0.220403 23.0445 0.322157 24.0765L0.409374 25.1522L1.65949 23.9021L2.89506 22.6665L4.07249 23.8585C8.0118 27.8559 13.6518 29.0624 18.8703 27.0274C22.359 25.6755 25.3244 22.6229 26.5745 19.1051C27.0251 17.855 27.4176 15.9508 27.4176 15.035V14.4972H26.56H25.7169L25.6151 15.4275Z" fill="#5E6EFF"/>
</svg>
